<?xml version="1.0" encoding="UTF-8"?>
<svg id="Layer_1" data-name="Layer 1" xmlns="http://www.w3.org/2000/svg" viewBox="0 0 17.45 18.85">
  <defs>
    <style>
      .cls-1 {
        fill: #4c5b39;
      }
    </style>
  </defs>
  <path class="cls-1" d="M4.14,3.06c-.07-.16.15-.72.28-.64,1.51,1.06,2.87,2.29,4.22,3.61l1.81-2.45c.06-.08.25-.26.34-.26s.26.07.46.14v4.45s4.39.7,4.39.7c.17.03.49.29.46.43s-.29.37-.44.4l-3.17.7,2.98,4.59.1.37c.02.08-.21.14-.36.18l-4.57-3.08-3.33,4.04-.39.19c-.11.05-.33-.28-.32-.41l.59-5.15-5.82-1.77c.2-.46.53-.64.92-.65l4.29-.2-2.42-5.16Z"/>
</svg>