<?xml version="1.0" encoding="UTF-8"?>
<svg id="Layer_1" data-name="Layer 1" xmlns="http://www.w3.org/2000/svg" viewBox="0 0 133.89 39.73">
  <defs>
    <style>
      .cls-1 {
        stroke: #33402a;
        stroke-miterlimit: 10;
      }

      .cls-1, .cls-2 {
        fill: #33402a;
      }
    </style>
  </defs>
  <g>
    <path class="cls-1" d="M21.41,26.05c.41-.33.76-.47,1.07-.4s.46.36.46.87c0,.17-.04.33-.11.5-.07.17-.16.31-.25.43-.09.12-.23.26-.42.42-.19.16-.33.27-.43.35-.1.07-.26.18-.47.32-.21.14-.35.23-.4.26-.43.3-.88.54-1.36.72-.35.17-.99.34-1.93.53-.93.19-1.67.28-2.21.28-.44,0-1.06-.15-1.86-.46s-1.48-.59-2.04-.85c-.56-.26-.85-.36-.85-.31h-.19c-.13,0-.27,0-.43-.03-.16-.02-.38.07-.68.26-.3.19-.6.5-.92.9-.46.57-.88,1.36-1.25,2.35-.37.99-.63,1.61-.78,1.87-.19.37-.37.8-.57,1.28-.19.48-.38.89-.57,1.22s-.43.68-.75,1.05c-.28.33-.5.54-.65.61s-.42.04-.79-.11c-.44-.17-.76-.6-.96-1.29-.19-.69-.23-1.3-.1-1.82.07-.31.29-.74.65-1.26.93-1.35,1.36-2.96,1.87-4.49s1.18-2.84,1.35-4.4c.08-.76.18-1.48.31-2.17.12-.68.34-1.3.65-1.83.04-.07.09-.18.17-.32.07-.14.14-.27.21-.39s.14-.26.24-.42c.09-.16.18-.3.26-.42s.18-.25.28-.4c.1-.15.2-.28.31-.39.1-.11.21-.22.32-.32.11-.1.23-.19.35-.26.12-.07.24-.13.35-.17.67-.18,1.15-.06,1.44.37.3.44.28.92-.06,1.46-.48.8-.58,1.17-.31,1.11.28-.09.73-.45,1.36-1.08.74-.74,1.43-1.3,2.08-1.69s1.4-.66,2.25-.8c.81-.15,1.24-.25,1.28-.31.07-.02.15.03.22.14.07.11.15.27.22.47.06.2.11.44.17.69.04.28.07.55.11.83.04.28.06.55.06.8,0,1.27-.06,2.6-.46,3.82-.4,1.22-1.58,2.83-2.77,3.38-.42.19-.87.28-1.3.44-.38.13-1.53.67-.78,1.02.19.09.43.18.71.26s.56.15.86.21c.3.06.55.08.75.08.31,0,.69-.05,1.14-.14.17-.07.37-.15.61-.24.24-.08.46-.16.67-.24.2-.07.37-.15.5-.22,1.42-.74,2.55-1.44,3.39-2.11ZM10.89,25.9c.26.32.51.49.75.49.43,0,1.08-.38,1.97-1.15.89-.77,1.44-1.41,1.67-1.93.24-.59.37-1.24.4-1.94.03-.7-.07-1.26-.29-1.67-.22-.39-.44-.55-.65-.49-.21.06-.69.46-1.43,1.18-.7.63-1.36,1.42-1.96,2.39s-.9,1.67-.9,2.11c.04.35.18.69.44,1.01Z"/>
    <path class="cls-1" d="M38.46,26.69c.35-.28.65-.39.9-.35.25.05.37.29.37.74,0,.09-.02.19-.06.29s-.08.19-.12.28-.12.17-.21.26c-.09.09-.18.18-.25.25s-.17.15-.28.24c-.11.08-.2.15-.28.19-.07.05-.17.11-.28.18-.11.07-.19.13-.25.17-.35.24-.72.44-1.11.61-.04.02-.26.13-.67.33l-.14.17c-.5.48-1.22.78-2.17.89-.59.07-1.05.08-1.37.01-.32-.06-.77-.23-1.35-.49-.85-.41-1.42-.74-1.69-1-.19-.15-.34-.21-.47-.19-.13.02-.37.17-.72.44-1.13.81-2.48,1.27-4.04,1.37-1.56.1-2.59-.21-3.07-.93-.3-.46-.43-1.36-.4-2.69s.2-2.29.51-2.86c.28-.5.49-.87.64-1.11.17-.24.32-.46.47-.67.15-.22.4-.55.75-.97,1.17-1.44,2.08-2.43,2.75-2.97.52-.41,1.13-.75,1.83-1.04.7-.29,1.44-.48,2.21-.57.77-.09,1.45,0,2.04.31.72.37,1.17,1,1.33,1.9s.15,1.77-.06,2.61c-.2.84-.49,1.63-.86,2.37-.31.7-.55,1.47-.71,2.3-.16.83-.15,1.38.01,1.64.35.7,1.51.75,3.47.14.07-.02.15-.03.22-.03.11-.04.19-.07.25-.11,1.18-.61,2.11-1.18,2.78-1.72ZM30.11,21.52c.1-.06.2-.13.26-.22.27-.46-.76-.8-1.04-.85-.41-.07-.8-.06-1.19.06-.39.09-.98.46-1.76,1.11-.79.65-1.32,1.2-1.6,1.67-.37.54-.68,1.02-.94,1.44-.31.44-.53,1.09-.64,1.94-.11.85-.06,1.41.14,1.67.19.22.59.33,1.22.33s1.22-.1,1.78-.31c.54-.26.93-.65,1.19-1.17.44-.87.8-1.57,1.08-2.11.2-.35.45-.7.57-1.09.16-.51.25-1.05.41-1.57.07-.23.19-.51.3-.73.21-.4.14-.12.22-.18Z"/>
    <path class="cls-1" d="M55.81,25.58c.39-.35.74-.49,1.04-.43.31.06.47.36.49.87,0,.15-.02.29-.07.43-.05.14-.12.27-.22.39-.1.12-.2.24-.31.35-.1.11-.23.22-.37.33-.15.11-.27.2-.37.28-.1.07-.24.16-.4.26s-.28.18-.33.24c-.44.3-.9.54-1.36.72-.04.02-.09.05-.17.08-.04.09-.11.17-.22.22-.11.06-.28.11-.5.17-.43.24-1.05.41-1.89.5-.83.09-1.59.12-2.28.07-.68-.05-1.13-.12-1.33-.24-.17-.11-.35-.34-.55-.69-.2-.35-.38-.7-.53-1.05s-.24-.62-.28-.81c-.13-.54-.18-1.11-.14-1.72.06-.63.16-1.61.31-2.94v-.39c0-.09-.03-.16-.1-.21-.06-.05-.15-.08-.26-.1h-.44c-.22,0-.47-.04-.75-.11-.28-.07-.55-.14-.82-.21-.27-.06-.5-.1-.71-.1.02,0-.05.29-.19.87-.15.58-.34,1.2-.57,1.85-.23.65-.44,1.03-.62,1.14-.67.39-1.37.67-2.11.83-.96.22-.53-1.88,1.3-6.3.04-.11.13-.34.28-.69.15-.35.25-.6.31-.74.06-.14.14-.36.26-.67.12-.31.21-.56.26-.75.06-.19.12-.43.18-.71.06-.28.11-.54.14-.79s.04-.5.04-.76c0-.21-.09.57-.13.37-.14-.8.4-1.85.95-2.41.34-.33.65-.22,1.07-.22.24,0,.49.02.73.05.38.05.91.13,1.12.5.09.17.09.41.1.6.05.84-.06.7-.16,1.53-.17,1.22-.24,2.01-.22,2.36.02.37.12.67.31.89.22.19.42.27.58.26.17,0,.48-.15.94-.43.68-.39,1.18-.57,1.49-.56s.59.23.85.64c.2.3.3.56.28.8-.02.24-.16.7-.42,1.39-.37.98-.7,2.1-1,3.36-.22,1-.29,1.74-.21,2.22.08.48.38,1.05.9,1.69.22.31.4.49.53.53.06.02.15,0,.29-.04.14-.05.29-.1.44-.17.16-.06.26-.11.32-.12.57-.15.95-.27,1.14-.36,1.42-.74,2.55-1.43,3.39-2.08Z"/>
    <path class="cls-1" d="M75.9,25.83c.41-.35.76-.49,1.07-.43.31.06.46.36.46.87.02.17-.01.33-.1.5-.08.17-.17.31-.26.43-.09.12-.23.26-.4.42-.18.16-.32.27-.43.35-.11.07-.27.18-.49.32-.21.14-.34.23-.37.26-.44.3-.9.54-1.36.72-.07.04-.2.11-.39.22-.19.11-.32.19-.42.22-.61.24-1.06.38-1.36.42-1.57.2-2.65.24-3.22.11-.57-.13-1.22-.52-1.94-1.17-.44-.44-.76-.85-.94-1.22s-.33-.87-.44-1.5c-.22-1.02-.44-1.54-.67-1.55-.17,0-.36.19-.58.56-.3.54-.82,1.22-1.58,2.05-.76.83-1.38,1.42-1.86,1.75-.33.22-.71.4-1.12.54-.42.14-.87.24-1.35.29-.67.06-1.11.06-1.33.01-.22-.05-.43-.22-.61-.51-.57-.91-.77-2.26-.6-4.07.18-1.8.67-3.34,1.48-4.59.48-.7,1.14-1.45,1.97-2.23.83-.79,1.72-1.44,2.66-1.96.59-.35,1.62-.53,3.08-.53.46-.02.85-.09,1.17-.21s.57-.31.78-.56c.2-.25.37-.5.49-.75s.28-.58.47-1c.19-.42.38-.77.57-1.07,2.85-4.5,4.39-6.91,4.61-7.24.06-.11.17-.31.33-.58,1.17-1.98,2.03-3.05,2.58-3.22.48-.15.82.19,1.03,1.03.22.83.13,1.81-.28,2.94s-.9,2.13-1.48,3.01c-.58.88-1.28,1.89-2.1,3.03-.81,1.14-1.35,1.95-1.61,2.43-.22.37-.47.93-.74,1.68-.27.75-.46,1.25-.57,1.51-1.61,3.5-2.26,6.44-1.94,8.83.11.89.34,1.52.68,1.9.34.38.84.57,1.49.57.46,0,1.05-.1,1.78-.31.28-.09.44-.16.5-.19,1.42-.74,2.54-1.43,3.36-2.08ZM61.46,24.72c2.63-3.33,3.9-5.26,3.83-5.8-.09-.39-.45-.58-1.07-.57-.62,0-1.22.22-1.79.62-.7.48-1.48,1.19-2.32,2.14-.84.94-1.38,1.7-1.62,2.28-.28.61-.42,1.37-.42,2.28,0,1.13.22,1.67.67,1.61.52-.06,1.42-.91,2.72-2.55Z"/>
    <path class="cls-1" d="M104.7,26.22c.39-.33.73-.47,1.03-.4.3.06.44.35.44.85,0,.13-.02.26-.07.39-.05.13-.12.26-.21.39-.09.13-.19.24-.28.33-.09.09-.21.19-.36.31-.15.11-.27.2-.37.28-.1.07-.23.16-.37.26-.15.1-.26.17-.33.21-.41.3-.84.54-1.31.72-.04.02-.12.06-.25.11-.13.06-.25.1-.36.14l-.17.06c-1.09.44-2.26.7-3.5.78-1.3.07-2.24-.04-2.83-.33-.07-.04-.36-.16-.86-.37-.5-.21-.85-.39-1.06-.54-.26-.19-.49-.44-.69-.78-.28.26-.56.51-.86.75-.39.28-.79.51-1.19.69-1.07.56-1.84.95-2.3,1.19-.81.43-1.53.55-2.15.36-.62-.19-1.35-.74-2.18-1.67-.67-.74-1.06-1.25-1.18-1.53-.12-.28-.18-.81-.18-1.61,0-1.13.18-2.3.53-3.53.33-1.24.47-1.92.42-2.03-.11-.11-.77.46-1.97,1.72-1.2,1.26-2.39,2.59-3.55,3.98-1.17,1.4-1.75,2.21-1.75,2.43,0,.19-.1.38-.29.6-.19.21-.44.38-.74.51-.3.13-.56.17-.78.11-.37-.06-.63-.37-.78-.94-.11-.39-.12-.74-.04-1.04s.36-.85.82-1.62c.26-.48.76-1.58,1.5-3.29.74-1.71,1.37-2.92,1.89-3.62.09-.13.19-.24.28-.33.2-.24.48-.42.82-.54.34-.12.64-.11.9.04.09.07.16.26.21.57.05.31.11.47.18.49.11.02.38-.14.81-.47.74-.59,1.92-1.07,3.53-1.44.65-.18,1.07-.25,1.26-.21.19.05.43.21.71.49.39.41.59.91.6,1.5,0,.59-.16,1.14-.51,1.64-.3.44-.66,1.33-1.08,2.65-.43,1.32-.64,2.23-.64,2.73,0,.35.11.74.32,1.17.21.43.47.78.78,1.06.31.28.6.42.87.42.37,0,1.17-.36,2.42-1.08,1.05-.59,1.92-1.17,2.61-1.75-.52-1.35-.78-2.55-.78-3.61,0-.76.13-1.75.39-2.97.02-.07.06-.22.11-.44.06-.22.1-.39.12-.51.03-.12.07-.28.12-.49.06-.2.11-.37.15-.51.05-.14.11-.29.18-.44.07-.16.15-.29.22-.4.37-.54.67-.92.89-1.14.98-1,2.2-1.44,3.66-1.33,1.54.13,2.38.64,2.53,1.53.09.7.05,1.42-.14,2.15-.19.73-.42,1.34-.69,1.82-.28.48-.66,1.11-1.15,1.87-.49.77-.84,1.36-1.04,1.76-.8,1.48-1.19,2.37-1.19,2.67,0,.22.22.55.67.97.3.28.55.44.78.47.22.06.63.04,1.22-.06.92-.15,1.92-.38,3-.69.43-.13,1.03-.36,1.8-.69.78-.33,1.26-.57,1.44-.72ZM95.65,22.22c.72-1.39,1.08-2.22,1.08-2.5,0-.35-.19-.57-.56-.67s-.66,0-.86.25c-.19.22-.37.55-.54.97-.18.43-.31.86-.4,1.3-.11.43-.2.85-.28,1.28-.06.41-.06.75-.03,1.03.04.28.12.42.25.42.17,0,.61-.69,1.33-2.08Z"/>
    <path class="cls-1" d="M122.95,25.58c.39-.35.74-.49,1.04-.43.31.06.47.36.49.87,0,.15-.02.29-.07.43-.05.14-.12.27-.22.39-.1.12-.2.24-.31.35-.1.11-.23.22-.37.33-.15.11-.27.2-.37.28-.1.07-.24.16-.4.26s-.28.18-.33.24c-.44.3-.9.54-1.36.72-.04.02-.09.05-.17.08-.04.09-.11.17-.22.22-.11.06-.28.11-.5.17-.43.24-1.05.41-1.89.5-.83.09-1.59.12-2.28.07-.68-.05-1.13-.12-1.33-.24-.17-.11-.35-.34-.55-.69-.2-.35-.38-.7-.53-1.05s-.24-.62-.28-.81c-.13-.54-.18-1.11-.14-1.72.06-.63.16-1.61.31-2.94v-.39c0-.09-.03-.16-.1-.21-.06-.05-.15-.08-.26-.1h-.44c-.22,0-.47-.04-.75-.11-.28-.07-.55-.14-.82-.21-.27-.06-.5-.1-.71-.1.02,0-.05.29-.19.87-.15.58-.34,1.2-.57,1.85-.23.65-.44,1.03-.62,1.14-.67.39-1.37.67-2.11.83-.96.22-.53-1.88,1.3-6.3.04-.11.13-.34.28-.69.15-.35.25-.6.31-.74.06-.14.14-.36.26-.67.12-.31.21-.56.26-.75.06-.19.12-.43.18-.71.06-.28.11-.54.14-.79s-.03-.52,0-.78c.08-1.03.31-.98.87-1.63.44-.51,1.18-.57,1.86-.51.51.05.85.16,1.01.35.22.28.22.35,0,2.22-.17,1.22-.24,2.01-.22,2.36.02.37.12.67.31.89.22.19.42.27.58.26.17,0,.48-.15.94-.43.68-.39,1.18-.57,1.49-.56s.59.23.85.64c.2.3.3.56.28.8-.02.24-.16.7-.42,1.39-.37.98-.7,2.1-1,3.36-.22,1-.29,1.74-.21,2.22.08.48.38,1.05.9,1.69.22.31.4.49.53.53.06.02.15,0,.29-.04.14-.05.29-.1.44-.17.16-.06.26-.11.32-.12.57-.15.95-.27,1.14-.36,1.42-.74,2.55-1.43,3.39-2.08Z"/>
  </g>
  <g>
    <path class="cls-2" d="M34.45,29.69c.51-.03.96-.33,1.38-.63,1.32-.93,2.66-1.88,3.72-3.11.85-.99,1.49-2.14,2.1-3.3"/>
    <path class="cls-2" d="M34.45,30.82c1.02-.1,1.77-.65,2.58-1.23s1.57-1.15,2.29-1.8c1.42-1.29,2.41-2.89,3.3-4.57.28-.52.15-1.25-.4-1.54-.52-.28-1.24-.15-1.54.4-.79,1.48-1.56,2.82-2.77,3.94-.6.56-1.13.97-1.76,1.43-.33.24-.65.47-.99.7-.16.11-.33.22-.51.32-.04.02-.16.07-.05.03-.02,0-.34.07-.16.06-.58.06-1.15.48-1.12,1.12.03.56.5,1.19,1.12,1.12h0Z"/>
  </g>
  <g>
    <path class="cls-2" d="M35.33,29.85c2.53-1.41,6.91-4.06,6.83-7.43"/>
    <path class="cls-2" d="M35.9,30.82c1.66-.92,3.29-1.94,4.7-3.22s2.72-3.12,2.69-5.18c0-.59-.51-1.15-1.12-1.12s-1.13.49-1.12,1.12c0,.12,0,.24,0,.36,0,.07-.05.33,0,.05-.04.2-.08.4-.14.6-.03.09-.06.17-.09.25-.07.21.09-.15-.05.1-.09.18-.18.35-.29.52-.11.19-.24.37-.37.55.15-.2-.04.05-.06.07-.07.09-.15.17-.22.26-.3.34-.62.65-.96.95-.18.16-.36.31-.54.46-.04.03-.27.21-.09.07-.08.06-.16.12-.24.18-.37.28-.76.54-1.15.79-.67.43-1.36.84-2.06,1.23-.53.3-.71,1.02-.4,1.54s1.01.7,1.54.4h0Z"/>
  </g>
  <path class="cls-2" d="M121.69,19.05c-.06-.14.13-.62.24-.55,1.3.91,2.47,1.98,3.63,3.11l1.56-2.11c.05-.07.21-.22.3-.22s.22.06.39.12v3.83s3.78.6,3.78.6c.15.02.42.25.39.37s-.25.32-.38.34l-2.73.6,2.57,3.96.09.32c.02.06-.19.12-.31.16l-3.94-2.66-2.87,3.48-.33.16c-.09.05-.29-.24-.28-.35l.51-4.44-5.02-1.53c.17-.4.46-.55.79-.56l3.69-.18-2.08-4.45Z"/>
  <g>
    <path class="cls-2" d="M34.63,29.32c3.13-1.23,4.61-3.42,6.62-8.08"/>
    <path class="cls-2" d="M34.93,30.4c1.64-.65,3.09-1.61,4.2-3.01,1.34-1.68,2.25-3.63,3.09-5.59.24-.56.17-1.21-.4-1.54-.47-.28-1.3-.16-1.54.4-.43,1.01-.89,2.01-1.4,2.98-.21.4-.44.8-.68,1.18-.12.19-.23.37-.36.55-.06.09-.13.19-.2.28-.03.04-.2.27-.05.08-.23.3-.48.58-.75.85-.13.13-.27.27-.41.39-.07.06-.13.11-.2.17-.08.07-.2.15-.04.04-.31.22-.62.43-.95.62-.16.09-.32.17-.48.25-.08.04-.17.08-.25.12-.12.05-.11.05,0,0-.06.02-.12.05-.18.07-.56.22-.96.75-.79,1.38.15.54.82,1.01,1.38.79h0Z"/>
  </g>
  <g>
    <path class="cls-2" d="M101.37,29.34c3.13-.72,7.39-2.35,8.02-6.5"/>
    <path class="cls-2" d="M101.67,30.43c3.84-.89,8.11-2.97,8.81-7.28.1-.6-.16-1.21-.79-1.38-.54-.15-1.29.18-1.38.79-.04.25-.09.5-.16.75-.03.1-.06.2-.09.3-.01.04-.16.43-.07.21-.17.4-.4.77-.64,1.13-.08.1-.08.11,0,0-.03.04-.06.08-.09.11-.07.09-.15.17-.23.26-.14.16-.29.31-.45.45-.08.08-.17.15-.26.23-.02.01-.27.22-.08.07-.18.14-.37.27-.56.4-.36.23-.73.44-1.12.63-.21.1-.42.2-.63.29.22-.1-.05.02-.09.04-.12.05-.24.09-.36.14-.78.29-1.58.51-2.39.7-.59.14-.94.82-.79,1.38.17.61.79.92,1.38.79h0Z"/>
  </g>
  <g>
    <path class="cls-2" d="M100.9,28.68c3.13-1.23,5.57-2.37,7.58-7.02"/>
    <path class="cls-2" d="M101.2,29.77c1.66-.65,3.27-1.36,4.67-2.49,1.63-1.31,2.75-3.15,3.58-5.05.24-.56.16-1.21-.4-1.54-.48-.28-1.3-.16-1.54.4-.43.99-.92,1.95-1.54,2.82-.07.1-.14.19-.21.29-.05.06-.04.05.02-.03-.04.05-.08.1-.12.15-.13.16-.27.32-.41.47-.28.3-.57.58-.89.83-.08.07-.2.15-.04.04-.09.07-.18.14-.28.2-.14.1-.28.19-.42.28-.33.21-.68.4-1.03.58-.33.17-.67.32-1.01.47-.21.09.18-.07-.09.04-.1.04-.19.08-.29.12-.19.08-.39.16-.58.23-.57.22-.96.75-.79,1.38.15.54.82,1.01,1.38.79h0Z"/>
  </g>
</svg>