<?xml version="1.0" encoding="UTF-8"?>
<svg id="Layer_1" data-name="Layer 1" xmlns="http://www.w3.org/2000/svg" viewBox="0 0 133.89 39.73">
  <defs>
    <style>
      .cls-1 {
        stroke: #33402a;
        stroke-miterlimit: 10;
      }

      .cls-1, .cls-2 {
        fill: #33402a;
      }
    </style>
  </defs>
  <g>
    <path class="cls-1" d="M21.41,26.05c.41-.33.76-.47,1.07-.4s.46.36.46.87c0,.17-.04.33-.11.5-.07.17-.16.31-.25.43-.09.12-.23.26-.42.42-.19.16-.33.27-.43.35-.1.07-.26.18-.47.32-.21.14-.35.23-.4.26-.43.3-.88.54-1.36.72-.35.17-.99.34-1.93.53-.93.19-1.67.28-2.21.28-.44,0-1.06-.15-1.86-.46s-1.48-.59-2.04-.85c-.56-.26-.85-.36-.85-.31h-.19c-.13,0-.27,0-.43-.03-.16-.02-.38.07-.68.26-.3.19-.6.5-.92.9-.46.57-.88,1.36-1.25,2.35-.37.99-.63,1.61-.78,1.87-.19.37-.37.8-.57,1.28-.19.48-.38.89-.57,1.22s-.43.68-.75,1.05c-.28.33-.5.54-.65.61s-.42.04-.79-.11c-.44-.17-.76-.6-.96-1.29-.19-.69-.23-1.3-.1-1.82.07-.31.29-.74.65-1.26.36-.53.59-.91.68-1.15.11-.3.23-.74.36-1.33.13-.59.24-1.01.33-1.25.13-.39.37-.94.72-1.65s.59-1.24.72-1.6c.19-.52.32-1.16.4-1.92.08-.76.18-1.48.31-2.17.12-.68.34-1.3.65-1.83.04-.07.09-.18.17-.32.07-.14.14-.27.21-.39s.14-.26.24-.42c.09-.16.18-.3.26-.42s.18-.25.28-.4c.1-.15.2-.28.31-.39.1-.11.21-.22.32-.32.11-.1.23-.19.35-.26.12-.07.24-.13.35-.17.67-.18,1.15-.06,1.44.37.3.44.28.92-.06,1.46-.48.8-.58,1.17-.31,1.11.28-.09.73-.45,1.36-1.08.74-.74,1.43-1.3,2.08-1.69s1.4-.66,2.25-.8c.81-.15,1.24-.25,1.28-.31.07-.02.15.03.22.14.07.11.15.27.22.47.06.2.11.44.17.69.04.28.07.55.11.83.04.28.06.55.06.8-.02,2.57-.39,4.25-1.11,5.02-.44.46-.79.91-1.03,1.33-.07.17-.16.28-.26.33-.1.06-.19.08-.25.07-.06,0-.16,0-.29.04-.13.04-.24.13-.33.28-.26.28-.54.42-.83.42-.24.02-.55.14-.93.37-.38.23-.57.42-.57.57,0,.06.1.13.29.22.19.09.43.18.71.26s.56.15.86.21c.3.06.55.08.75.08.31,0,.69-.05,1.14-.14.17-.07.37-.15.61-.24.24-.08.46-.16.67-.24.2-.07.37-.15.5-.22,1.42-.74,2.55-1.44,3.39-2.11ZM10.89,25.9c.26.32.51.49.75.49.43,0,1.08-.38,1.97-1.15.89-.77,1.44-1.41,1.67-1.93.24-.59.37-1.24.4-1.94.03-.7-.07-1.26-.29-1.67-.22-.39-.44-.55-.65-.49-.21.06-.69.46-1.43,1.18-.7.63-1.36,1.42-1.96,2.39s-.9,1.67-.9,2.11c.04.35.18.69.44,1.01Z"/>
    <path class="cls-1" d="M38.46,26.69c.35-.28.65-.39.9-.35.25.05.37.29.37.74,0,.09-.02.19-.06.29s-.08.19-.12.28-.12.17-.21.26c-.09.09-.18.18-.25.25s-.17.15-.28.24c-.11.08-.2.15-.28.19-.07.05-.17.11-.28.18-.11.07-.19.13-.25.17-.35.24-.72.44-1.11.61-.04.02-.26.13-.67.33l-.14.17c-.5.48-1.22.78-2.17.89-.59.07-1.05.08-1.37.01-.32-.06-.77-.23-1.35-.49-.85-.41-1.42-.74-1.69-1-.19-.15-.34-.21-.47-.19-.13.02-.37.17-.72.44-1.13.81-2.48,1.27-4.04,1.37-1.56.1-2.59-.21-3.07-.93-.3-.46-.43-1.36-.4-2.69s.2-2.29.51-2.86c.28-.5.49-.87.64-1.11.17-.24.32-.46.47-.67.15-.22.4-.55.75-.97,1.17-1.44,2.08-2.43,2.75-2.97.52-.41,1.13-.75,1.83-1.04.7-.29,1.44-.48,2.21-.57.77-.09,1.45,0,2.04.31.72.37,1.17,1,1.33,1.9s.15,1.77-.06,2.61c-.2.84-.49,1.63-.86,2.37-.31.7-.55,1.47-.71,2.3-.16.83-.15,1.38.01,1.64.35.7,1.51.75,3.47.14.07-.02.15-.03.22-.03.11-.04.19-.07.25-.11,1.18-.61,2.11-1.18,2.78-1.72ZM30.08,21.47c.2-.11.31-.2.33-.28.02-.07-.03-.17-.14-.28-.22-.24-.54-.4-.94-.47-.41-.07-.8-.06-1.19.06-.39.09-.98.46-1.76,1.11-.79.65-1.32,1.2-1.6,1.67-.37.54-.68,1.02-.94,1.44-.31.44-.53,1.09-.64,1.94-.11.85-.06,1.41.14,1.67.19.22.59.33,1.22.33s1.22-.1,1.78-.31c.54-.26.93-.65,1.19-1.17.44-.87.8-1.57,1.08-2.11.48-.83.72-1.4.72-1.69,0-.19.08-.37.24-.57.16-.19.2-.4.12-.62-.09-.3.04-.54.39-.72Z"/>
    <path class="cls-1" d="M55.81,25.58c.39-.35.74-.49,1.04-.43.31.06.47.36.49.87,0,.15-.02.29-.07.43-.05.14-.12.27-.22.39-.1.12-.2.24-.31.35-.1.11-.23.22-.37.33-.15.11-.27.2-.37.28-.1.07-.24.16-.4.26s-.28.18-.33.24c-.44.3-.9.54-1.36.72-.04.02-.09.05-.17.08-.04.09-.11.17-.22.22-.11.06-.28.11-.5.17-.43.24-1.05.41-1.89.5-.83.09-1.59.12-2.28.07-.68-.05-1.13-.12-1.33-.24-.17-.11-.35-.34-.55-.69-.2-.35-.38-.7-.53-1.05s-.24-.62-.28-.81c-.13-.54-.18-1.11-.14-1.72.06-.63.16-1.61.31-2.94v-.39c0-.09-.03-.16-.1-.21-.06-.05-.15-.08-.26-.1h-.44c-.22,0-.47-.04-.75-.11-.28-.07-.55-.14-.82-.21-.27-.06-.5-.1-.71-.1.02,0-.05.29-.19.87-.15.58-.34,1.2-.57,1.85-.23.65-.44,1.03-.62,1.14-.67.39-1.37.67-2.11.83-.96.22-.53-1.88,1.3-6.3.04-.11.13-.34.28-.69.15-.35.25-.6.31-.74.06-.14.14-.36.26-.67.12-.31.21-.56.26-.75.06-.19.12-.43.18-.71.06-.28.11-.54.14-.79s.04-.5.04-.76c0-.3.19-.82.57-1.58.38-.76.68-1.22.9-1.39.3-.17.7-.23,1.21-.18.51.05.85.16,1.01.35.22.28.22,1.35,0,3.22-.17,1.22-.24,2.01-.22,2.36.02.37.12.67.31.89.22.19.42.27.58.26.17,0,.48-.15.94-.43.68-.39,1.18-.57,1.49-.56s.59.23.85.64c.2.3.3.56.28.8-.02.24-.16.7-.42,1.39-.37.98-.7,2.1-1,3.36-.22,1-.29,1.74-.21,2.22.08.48.38,1.05.9,1.69.22.31.4.49.53.53.06.02.15,0,.29-.04.14-.05.29-.1.44-.17.16-.06.26-.11.32-.12.57-.15.95-.27,1.14-.36,1.42-.74,2.55-1.43,3.39-2.08Z"/>
    <path class="cls-1" d="M75.9,25.83c.41-.35.76-.49,1.07-.43.31.06.46.36.46.87.02.17-.01.33-.1.5-.08.17-.17.31-.26.43-.09.12-.23.26-.4.42-.18.16-.32.27-.43.35-.11.07-.27.18-.49.32-.21.14-.34.23-.37.26-.44.3-.9.54-1.36.72-.07.04-.2.11-.39.22-.19.11-.32.19-.42.22-.61.24-1.06.38-1.36.42-1.57.2-2.65.24-3.22.11-.57-.13-1.22-.52-1.94-1.17-.44-.44-.76-.85-.94-1.22s-.33-.87-.44-1.5c-.22-1.02-.44-1.54-.67-1.55-.17,0-.36.19-.58.56-.3.54-.82,1.22-1.58,2.05-.76.83-1.38,1.42-1.86,1.75-.33.22-.71.4-1.12.54-.42.14-.87.24-1.35.29-.67.06-1.11.06-1.33.01-.22-.05-.43-.22-.61-.51-.57-.91-.77-2.26-.6-4.07.18-1.8.67-3.34,1.48-4.59.48-.7,1.14-1.45,1.97-2.23.83-.79,1.72-1.44,2.66-1.96.59-.35,1.62-.53,3.08-.53.46-.02.85-.09,1.17-.21s.57-.31.78-.56c.2-.25.37-.5.49-.75s.28-.58.47-1c.19-.42.38-.77.57-1.07,2.85-4.5,4.39-6.91,4.61-7.24.06-.11.17-.31.33-.58,1.17-1.98,2.03-3.05,2.58-3.22.48-.15.82.19,1.03,1.03.22.83.13,1.81-.28,2.94s-.9,2.13-1.48,3.01c-.58.88-1.28,1.89-2.1,3.03-.81,1.14-1.35,1.95-1.61,2.43-.22.37-.47.93-.74,1.68-.27.75-.46,1.25-.57,1.51-1.61,3.5-2.26,6.44-1.94,8.83.11.89.34,1.52.68,1.9.34.38.84.57,1.49.57.46,0,1.05-.1,1.78-.31.28-.09.44-.16.5-.19,1.42-.74,2.54-1.43,3.36-2.08ZM61.46,24.72c2.63-3.33,3.9-5.26,3.83-5.8-.09-.39-.45-.58-1.07-.57-.62,0-1.22.22-1.79.62-.7.48-1.48,1.19-2.32,2.14-.84.94-1.38,1.7-1.62,2.28-.28.61-.42,1.37-.42,2.28,0,1.13.22,1.67.67,1.61.52-.06,1.42-.91,2.72-2.55Z"/>
    <path class="cls-1" d="M104.7,26.22c.39-.33.73-.47,1.03-.4.3.06.44.35.44.85,0,.13-.02.26-.07.39-.05.13-.12.26-.21.39-.09.13-.19.24-.28.33-.09.09-.21.19-.36.31-.15.11-.27.2-.37.28-.1.07-.23.16-.37.26-.15.1-.26.17-.33.21-.41.3-.84.54-1.31.72-.04.02-.12.06-.25.11-.13.06-.25.1-.36.14l-.17.06c-1.09.44-2.26.7-3.5.78-1.3.07-2.24-.04-2.83-.33-.07-.04-.36-.16-.86-.37-.5-.21-.85-.39-1.06-.54-.26-.19-.49-.44-.69-.78-.28.26-.56.51-.86.75-.39.28-.79.51-1.19.69-1.07.56-1.84.95-2.3,1.19-.81.43-1.53.55-2.15.36-.62-.19-1.35-.74-2.18-1.67-.67-.74-1.06-1.25-1.18-1.53-.12-.28-.18-.81-.18-1.61,0-1.13.18-2.3.53-3.53.33-1.24.47-1.92.42-2.03-.11-.11-.77.46-1.97,1.72-1.2,1.26-2.39,2.59-3.55,3.98-1.17,1.4-1.75,2.21-1.75,2.43,0,.19-.1.38-.29.6-.19.21-.44.38-.74.51-.3.13-.56.17-.78.11-.37-.06-.63-.37-.78-.94-.11-.39-.12-.74-.04-1.04s.36-.85.82-1.62c.26-.48.76-1.58,1.5-3.29.74-1.71,1.37-2.92,1.89-3.62.09-.13.19-.24.28-.33.2-.24.48-.42.82-.54.34-.12.64-.11.9.04.09.07.16.26.21.57.05.31.11.47.18.49.11.02.38-.14.81-.47.74-.59,1.92-1.07,3.53-1.44.65-.18,1.07-.25,1.26-.21.19.05.43.21.71.49.39.41.59.91.6,1.5,0,.59-.16,1.14-.51,1.64-.3.44-.66,1.33-1.08,2.65-.43,1.32-.64,2.23-.64,2.73,0,.35.11.74.32,1.17.21.43.47.78.78,1.06.31.28.6.42.87.42.37,0,1.17-.36,2.42-1.08,1.05-.59,1.92-1.17,2.61-1.75-.52-1.35-.78-2.55-.78-3.61,0-.76.13-1.75.39-2.97.02-.07.06-.22.11-.44.06-.22.1-.39.12-.51.03-.12.07-.28.12-.49.06-.2.11-.37.15-.51.05-.14.11-.29.18-.44.07-.16.15-.29.22-.4.37-.54.67-.92.89-1.14.98-1,2.2-1.44,3.66-1.33,1.54.13,2.38.64,2.53,1.53.09.7.05,1.42-.14,2.15-.19.73-.42,1.34-.69,1.82-.28.48-.66,1.11-1.15,1.87-.49.77-.84,1.36-1.04,1.76-.8,1.48-1.19,2.37-1.19,2.67,0,.22.22.55.67.97.3.28.55.44.78.47.22.06.63.04,1.22-.06.92-.15,1.92-.38,3-.69.43-.13,1.03-.36,1.8-.69.78-.33,1.26-.57,1.44-.72ZM95.65,22.22c.72-1.39,1.08-2.22,1.08-2.5,0-.35-.19-.57-.56-.67s-.66,0-.86.25c-.19.22-.37.55-.54.97-.18.43-.31.86-.4,1.3-.11.43-.2.85-.28,1.28-.06.41-.06.75-.03,1.03.04.28.12.42.25.42.17,0,.61-.69,1.33-2.08Z"/>
    <path class="cls-1" d="M122.95,25.58c.39-.35.74-.49,1.04-.43.31.06.47.36.49.87,0,.15-.02.29-.07.43-.05.14-.12.27-.22.39-.1.12-.2.24-.31.35-.1.11-.23.22-.37.33-.15.11-.27.2-.37.28-.1.07-.24.16-.4.26s-.28.18-.33.24c-.44.3-.9.54-1.36.72-.04.02-.09.05-.17.08-.04.09-.11.17-.22.22-.11.06-.28.11-.5.17-.43.24-1.05.41-1.89.5-.83.09-1.59.12-2.28.07-.68-.05-1.13-.12-1.33-.24-.17-.11-.35-.34-.55-.69-.2-.35-.38-.7-.53-1.05s-.24-.62-.28-.81c-.13-.54-.18-1.11-.14-1.72.06-.63.16-1.61.31-2.94v-.39c0-.09-.03-.16-.1-.21-.06-.05-.15-.08-.26-.1h-.44c-.22,0-.47-.04-.75-.11-.28-.07-.55-.14-.82-.21-.27-.06-.5-.1-.71-.1.02,0-.05.29-.19.87-.15.58-.34,1.2-.57,1.85-.23.65-.44,1.03-.62,1.14-.67.39-1.37.67-2.11.83-.96.22-.53-1.88,1.3-6.3.04-.11.13-.34.28-.69.15-.35.25-.6.31-.74.06-.14.14-.36.26-.67.12-.31.21-.56.26-.75.06-.19.12-.43.18-.71.06-.28.11-.54.14-.79s.04-.5.04-.76c0-.3.19-.82.57-1.58.38-.76.68-1.22.9-1.39.3-.17.7-.23,1.21-.18.51.05.85.16,1.01.35.22.28.22,1.35,0,3.22-.17,1.22-.24,2.01-.22,2.36.02.37.12.67.31.89.22.19.42.27.58.26.17,0,.48-.15.94-.43.68-.39,1.18-.57,1.49-.56s.59.23.85.64c.2.3.3.56.28.8-.02.24-.16.7-.42,1.39-.37.98-.7,2.1-1,3.36-.22,1-.29,1.74-.21,2.22.08.48.38,1.05.9,1.69.22.31.4.49.53.53.06.02.15,0,.29-.04.14-.05.29-.1.44-.17.16-.06.26-.11.32-.12.57-.15.95-.27,1.14-.36,1.42-.74,2.55-1.43,3.39-2.08Z"/>
  </g>
  <g>
    <path class="cls-2" d="M34.45,29.69c.51-.03.96-.33,1.38-.63,1.32-.93,2.66-1.88,3.72-3.11.85-.99,1.49-2.14,2.1-3.3"/>
    <path class="cls-2" d="M34.45,30.82c1.02-.1,1.77-.65,2.58-1.23s1.57-1.15,2.29-1.8c1.42-1.29,2.41-2.89,3.3-4.57.28-.52.15-1.25-.4-1.54-.52-.28-1.24-.15-1.54.4-.79,1.48-1.56,2.82-2.77,3.94-.6.56-1.13.97-1.76,1.43-.33.24-.65.47-.99.7-.16.11-.33.22-.51.32-.04.02-.16.07-.05.03-.02,0-.34.07-.16.06-.58.06-1.15.48-1.12,1.12.03.56.5,1.19,1.12,1.12h0Z"/>
  </g>
  <g>
    <path class="cls-2" d="M103.53,27.77c1.47-1.28,2.87-2.64,4.18-4.08"/>
    <path class="cls-2" d="M104.33,28.57c1.47-1.28,2.87-2.64,4.18-4.08.4-.43.46-1.17,0-1.59-.43-.4-1.17-.46-1.59,0-1.31,1.44-2.71,2.8-4.18,4.08-.45.39-.43,1.2,0,1.59.48.44,1.12.41,1.59,0h0Z"/>
  </g>
  <g>
    <path class="cls-2" d="M104,27.32c1.78-.67,3.34-1.9,4.41-3.47"/>
    <path class="cls-2" d="M104.3,28.41c2.08-.79,3.83-2.15,5.09-3.98.33-.49.11-1.27-.4-1.54-.57-.3-1.18-.12-1.54.4-.07.1-.13.19-.2.29-.02.03-.15.2-.04.05s-.03.03-.04.05c-.14.17-.29.34-.44.5-.31.33-.65.64-1.01.93-.12.09.02-.02.06-.05-.05.03-.09.07-.14.1-.09.07-.19.14-.29.2-.19.12-.37.24-.57.35-.2.12-.41.23-.62.33-.1.05-.19.09-.29.13-.13.06.23-.09.04-.02-.07.03-.13.05-.2.08-.28.11-.52.25-.67.52-.14.24-.2.6-.11.87.17.53.8,1.01,1.38.79h0Z"/>
  </g>
  <g>
    <path class="cls-2" d="M37.08,28.25c2.05-1.3,3.73-3.18,4.8-5.35"/>
    <path class="cls-2" d="M37.65,29.22c2.21-1.42,4.04-3.41,5.2-5.76.26-.53.16-1.24-.4-1.54-.51-.27-1.26-.16-1.54.4-.26.53-.56,1.04-.89,1.54-.08.12-.16.24-.25.36-.04.06-.08.12-.13.17,0,0-.17.22-.07.09s-.05.07-.07.09c-.05.07-.11.13-.17.2-.09.11-.19.22-.28.33-.39.43-.8.84-1.24,1.21-.11.09-.22.19-.33.28-.03.03-.26.21-.04.04-.06.05-.12.09-.17.13-.24.18-.49.35-.75.52-.49.32-.74,1.01-.4,1.54.32.49,1.01.74,1.54.4h0Z"/>
  </g>
  <path class="cls-2" d="M121.69,19.05c-.06-.14.13-.62.24-.55,1.3.91,2.47,1.98,3.63,3.11l1.56-2.11c.05-.07.21-.22.3-.22s.22.06.39.12v3.83s3.78.6,3.78.6c.15.02.42.25.39.37s-.25.32-.38.34l-2.73.6,2.57,3.96.09.32c.02.06-.19.12-.31.16l-3.94-2.66-2.87,3.48-.33.16c-.09.05-.29-.24-.28-.35l.51-4.44-5.02-1.53c.17-.4.46-.55.79-.56l3.69-.18-2.08-4.45Z"/>
</svg>